<svg width="32" height="32" viewBox="0 0 32 32" fill="none" xmlns="http://www.w3.org/2000/svg">
<path fill-rule="evenodd" clip-rule="evenodd" d="M25.3813 7.75589C26.4265 8.05161 27.2338 8.88382 27.4975 9.93759C27.8436 11.8561 28.0116 13.8024 27.9993 15.7518C28.0062 17.6721 27.8383 19.589 27.4975 21.4788C27.2338 22.5326 26.4265 23.3648 25.3813 23.6605C23.505 24.1623 16 24.1623 16 24.1623C16 24.1623 8.49493 24.1623 6.61866 23.6605C5.59548 23.3805 4.79296 22.5863 4.50241 21.5661C4.15636 19.6476 3.98838 17.7012 4.00062 15.7518C3.99106 13.817 4.15903 11.8854 4.50241 9.98122C4.76617 8.92745 5.57341 8.09524 6.61866 7.79952C8.49493 7.29773 16 7.29773 16 7.29773C16 7.29773 23.505 7.29773 25.3813 7.75589ZM13.5456 19.3189L15.5456 18.1815L17.7951 16.9022L19.818 15.7518L17.7951 14.6014L15.5456 13.3221L13.5456 12.1847V14.4855V17.0181V19.3189ZM15.5456 15.6229L15.7722 15.7518L15.5456 15.8807V15.6229Z" fill="white"/>
</svg>
